<?xml version="1.0" encoding="UTF-8" standalone="no"?><!DOCTYPE svg PUBLIC "-//W3C//DTD SVG 1.1//EN" "http://www.w3.org/Graphics/SVG/1.1/DTD/svg11.dtd"><svg width="100%" height="100%" viewBox="0 0 209 209" version="1.1" xmlns="http://www.w3.org/2000/svg" xmlns:xlink="http://www.w3.org/1999/xlink" xml:space="preserve" xmlns:serif="http://www.serif.com/" style="fill-rule:evenodd;clip-rule:evenodd;stroke-linejoin:round;stroke-miterlimit:2;"><rect id="News" x="0" y="0" width="208.333" height="208.333" style="fill:none;"/><g id="News1" serif:id="News"><path d="M162.5,50c0,-2.21 -0.878,-4.33 -2.441,-5.893c-1.563,-1.562 -3.682,-2.44 -5.892,-2.44c-21.476,-0 -78.525,-0 -100,-0c-2.21,-0 -4.33,0.878 -5.893,2.44c-1.563,1.563 -2.441,3.683 -2.441,5.893c0,22.728 0,85.606 0,108.333c0,2.21 0.878,4.33 2.441,5.893c1.563,1.563 3.683,2.441 5.893,2.441c26.691,-0 108.333,-0 108.333,-0l0,-116.667Zm-8.333,-0c-0,-0 -0,108.333 -0,108.333l-100,0l-0,-108.333l100,-0Z" style="fill:#a3a3a3;"/><rect x="112.5" y="58.333" width="33.333" height="8.333" style="fill:#a3a3a3;"/><rect x="112.5" y="75" width="33.333" height="8.333" style="fill:#a3a3a3;"/><rect x="112.5" y="91.667" width="33.333" height="8.333" style="fill:#a3a3a3;"/><rect x="62.5" y="58.333" width="41.667" height="41.667" style="fill:#a3a3a3;"/><rect x="62.5" y="108.333" width="83.333" height="8.333" style="fill:#a3a3a3;"/><rect x="62.5" y="125" width="83.333" height="8.333" style="fill:#a3a3a3;"/><rect x="62.5" y="141.667" width="83.333" height="8.333" style="fill:#a3a3a3;"/><path d="M179.167,100c-0,-2.21 -0.878,-4.33 -2.441,-5.893c-1.563,-1.562 -3.683,-2.44 -5.893,-2.44c-4.166,-0 -8.333,-0 -8.333,-0l0,75l0,-0c9.205,-0 16.667,-7.462 16.667,-16.667c-0,-15.507 -0,-37.976 -0,-50Z" style="fill:#a3a3a3;"/><path d="M179.167,100c-0,-2.21 -0.878,-4.33 -2.441,-5.893c-1.563,-1.562 -3.683,-2.44 -5.893,-2.44c-4.166,-0 -8.333,-0 -8.333,-0l0,75c9.205,-0 16.667,-7.462 16.667,-16.667c-0,-15.507 -0,-37.976 -0,-50Z" style="fill:#a3a3a3;"/></g></svg>