<?xml version="1.0" encoding="UTF-8" standalone="no"?>
<!DOCTYPE svg PUBLIC "-//W3C//DTD SVG 1.1//EN" "http://www.w3.org/Graphics/SVG/1.1/DTD/svg11.dtd">
<svg width="100%" height="100%" viewBox="0 0 800 149" version="1.1" xmlns="http://www.w3.org/2000/svg" xmlns:xlink="http://www.w3.org/1999/xlink" xml:space="preserve" xmlns:serif="http://www.serif.com/" style="fill-rule:evenodd;clip-rule:evenodd;stroke-linejoin:round;stroke-miterlimit:2;">
    <g id="BLACK" transform="matrix(1,0,0,0.248333,0,0)">
        <rect x="0" y="0" width="800" height="600" style="fill:none;"/>
        <g transform="matrix(0.605432,0,0,2.43798,27.6595,21.702)">
            <g id="A_Blackpart" transform="matrix(1,0,0,1,-313.231,-634.738)">
                <g>
                    <g transform="matrix(1,0,0,1,446.585,817.437)">
                        <path d="M0,-134.898L-22.389,-90.121L-44.921,-45.06L-89.871,44.834L-134.866,44.834L-89.919,-45.008L-44.921,-134.954L-44.872,-134.954L-22.446,-179.732L-0.027,-134.954L0,-134.898Z" style="fill:white;fill-rule:nonzero;"/>
                    </g>
                    <g transform="matrix(170.984,-170.984,-170.984,-170.984,440.93,823.071)">
                        <path d="M0.165,-0.394L0.034,-0.263L0.231,0.329L0.428,0.394L0.297,-0L0.296,0L0.165,-0.394Z" style="fill:white;fill-rule:nonzero;"/>
                    </g>
                </g>
            </g>
            <g id="A_00a0c6part">
            </g>
            <g id="New-Contorneado-2020" serif:id="New Contorneado 2020" transform="matrix(1,0,0,1,-313.231,-634.738)">
                <g transform="matrix(1,0,0,1,621.239,832.997)">
                    <path d="M0,-87.084L-62.892,-87.084L-62.892,-116.396L53.08,-116.396L-16.652,-0.141L51.592,-0.141L51.592,29.312L-69.583,29.312L-36.721,-25.658L-31.954,-33.632L0,-87.084Z" style="fill:white;fill-rule:nonzero;"/>
                </g>
                <g transform="matrix(1,0,0,1,715.769,807.651)">
                    <path d="M0,-91.05L0,-145.708L29.312,-145.708L29.312,-91.05L55.508,-91.05L55.508,-61.738L29.312,-61.738L29.312,54.658L0,54.658L0,-61.738L-26.196,-61.738L-26.196,-91.05L0,-91.05Z" style="fill:white;fill-rule:nonzero;"/>
                </g>
                <g transform="matrix(1,0,0,1,903.37,756.669)">
                    <path d="M0,10.911L0,105.64L-29.31,105.64L-29.31,12.041C-29.31,3.64 -31.69,-3.559 -36.46,-9.549C-41.23,-15.549 -48.76,-18.549 -59.04,-18.549C-71.22,-18.549 -80.66,-12.029 -87.36,1.001L-87.36,105.64L-116.82,105.64L-116.82,-94.729L-87.36,-94.729L-87.36,-24.349C-79.15,-40.119 -67.26,-47.999 -51.68,-47.999C-36.1,-47.999 -23.67,-42.409 -14.37,-31.219C-5.07,-20.029 -0.28,-5.989 0,10.911" style="fill:white;fill-rule:nonzero;"/>
                </g>
                <g transform="matrix(1,0,0,1,1021.31,832.149)">
                    <path d="M0,-93.458C-3.306,-96.007 -10.716,-97.281 -22.231,-97.281C-36.108,-97.281 -47.981,-92.348 -57.845,-82.484C-67.71,-72.618 -72.642,-60.7 -72.642,-46.729C-72.642,-35.307 -71.368,-27.897 -68.819,-24.499L0,-93.458ZM-48.995,-2.833C-44.087,1.509 -35.166,3.681 -22.231,3.681C-8.262,3.681 3.682,-1.227 13.594,-11.045C14.819,-12.368 17.321,-15.293 21.099,-19.825L50.411,-9.346C43.235,0.566 38.042,7.128 34.834,10.335C19.067,26.103 0.046,33.984 -22.231,33.984C-44.417,33.984 -63.392,26.103 -79.156,10.335C-94.922,-5.428 -102.803,-24.45 -102.803,-46.729C-102.803,-69.008 -94.922,-88.028 -79.156,-103.795C-63.392,-119.56 -44.417,-127.442 -22.231,-127.442C-3.164,-127.442 13.545,-121.684 27.896,-110.167C30.254,-108.185 32.568,-106.061 34.834,-103.795C35.776,-102.851 38.467,-99.877 42.905,-94.874L28.179,-80.006L-48.995,-2.833Z" style="fill:white;fill-rule:nonzero;"/>
                </g>
                <g transform="matrix(1,0,0,1,1116.17,838.945)">
                    <path d="M0,-102.661C10.949,-117.48 24.402,-125.268 40.355,-126.025L40.355,-95.581C29.687,-95.015 21.191,-91.567 14.867,-85.244C5.332,-75.804 0.375,-64.57 0,-51.542L0,23.364L-29.312,23.364L-29.312,-122.344L0,-122.344L0,-102.661Z" style="fill:white;fill-rule:nonzero;"/>
                </g>
                <g transform="matrix(1,0,0,1,1199.63,821.104)">
                    <path d="M0,-71.368C-9.865,-61.455 -14.797,-49.561 -14.797,-35.684C-14.797,-21.713 -9.865,-9.819 0,0C9.863,9.818 21.783,14.726 35.754,14.726C49.725,14.726 61.643,9.818 71.51,0C81.373,-9.819 86.307,-21.713 86.307,-35.684C86.307,-49.561 81.373,-61.455 71.51,-71.368C61.643,-81.28 49.725,-86.236 35.754,-86.236C21.783,-86.236 9.863,-81.28 0,-71.368M35.754,-116.397C58.033,-116.397 77.031,-108.514 92.75,-92.75C108.467,-76.983 116.326,-57.963 116.326,-35.684C116.326,-13.405 108.467,5.617 92.75,21.381C77.031,37.148 58.033,45.029 35.754,45.029C13.57,45.029 -5.404,37.148 -21.17,21.381C-36.936,5.617 -44.816,-13.405 -44.816,-35.684C-44.816,-57.963 -36.936,-76.983 -21.17,-92.75C-5.404,-108.514 13.57,-116.397 35.754,-116.397" style="fill:white;fill-rule:nonzero;"/>
                </g>
                <g transform="matrix(1,0,0,1,0,19.013)">
                    <path d="M1362.8,843.296L1333.49,843.296L1333.49,697.588L1362.8,697.588L1362.8,843.296ZM1362.66,643.638C1366.72,647.603 1368.75,652.466 1368.75,658.223C1368.75,663.982 1366.72,668.843 1362.66,672.808C1358.6,676.773 1353.74,678.755 1348.08,678.755C1342.51,678.755 1337.69,676.773 1333.63,672.808C1329.57,668.843 1327.55,663.982 1327.55,658.223C1327.55,652.466 1329.57,647.603 1333.63,643.638C1337.69,639.673 1342.51,637.691 1348.08,637.691C1353.74,637.691 1358.6,639.673 1362.66,643.638" style="fill:white;fill-rule:nonzero;"/>
                </g>
                <g transform="matrix(1,0,0,1,1515.29,705.557)">
                    <path d="M0,90.765L0,69.101C-1.699,59.945 -6.279,51.636 -13.734,44.179C-23.555,34.266 -35.449,29.31 -49.418,29.31C-63.391,29.31 -75.309,34.266 -85.172,44.179C-95.039,54.091 -99.971,65.986 -99.971,79.863C-99.971,93.833 -95.039,105.728 -85.172,115.546C-75.309,125.365 -63.391,130.273 -49.418,130.273C-35.449,130.273 -23.555,125.365 -13.734,115.546C-6.279,108.089 -1.699,99.828 0,90.765M0,21.098L0,-69.811L29.453,-69.811L29.453,156.751L0,156.751L0,138.626C-14.16,153.261 -30.635,160.576 -49.418,160.576C-71.699,160.576 -90.695,152.695 -106.412,136.927C-122.131,121.163 -129.99,102.142 -129.99,79.863C-129.99,57.583 -122.131,38.563 -106.412,22.797C-90.695,7.032 -71.699,-0.851 -49.418,-0.851C-30.635,-0.851 -14.16,6.466 0,21.098" style="fill:white;fill-rule:nonzero;"/>
                </g>
            </g>
            <g transform="matrix(-0.22162,-1.02612,1.08681,-0.421122,-674.264,2748.23)">
                <path d="M2027.15,1150.59L2130,1295.57L2066.85,1129.41C2062.01,1120.34 2049.19,1117.73 2038.24,1123.57C2027.28,1129.42 2022.31,1141.53 2027.15,1150.59Z" style="fill:white;"/>
            </g>
        </g>
    </g>
</svg>
